<mxfile host="app.diagrams.net" modified="2023-07-30T04:43:11.668Z" agent="Mozilla/5.0 (Windows NT 10.0; Win64; x64) AppleWebKit/537.36 (KHTML, like Gecko) Chrome/115.0.0.0 Safari/537.36" version="21.6.2" etag="9hC0Tqn8OXI9ZyVdBfJ5" type="github">
  <diagram name="Page-1" id="ajMH5t58iBqpSDToikQ-">
    <mxGraphModel>
      <root>
        <mxCell id="0" />
        <mxCell id="1" parent="0" />
      </root>
    </mxGraphModel>
  </diagram>
</mxfile>
